<svg xmlns="http://www.w3.org/2000/svg" width="32" height="32"><path data-name="BOOK 2" d="M31.065 25.889l-14.471 5.988a1.494 1.494 0 0 1-1.187 0L.935 25.889A1.5 1.5 0 0 1 0 24.5v-23A1.5 1.5 0 0 1 2.073.114h.013L16 5.876 29.911.12h.013A1.5 1.5 0 0 1 32 1.5v23a1.5 1.5 0 0 1-.935 1.389zM14.5 8.5L3 3.744V23.5l11.5 4.759V8.5zM29 3.744L17.5 8.5v19.753L29 23.5V3.744zm-9.121 6.89l5.5-2.5a1.5 1.5 0 1 1 1.241 2.731l-5.5 2.5a1.48 1.48 0 0 1-.621.135 1.5 1.5 0 0 1-.62-2.866zm0 5.5l5.5-2.5a1.5 1.5 0 1 1 1.241 2.731l-5.5 2.5a1.5 1.5 0 1 1-1.241-2.731zm0 5.5l5.5-2.5a1.5 1.5 0 1 1 1.241 2.731l-5.5 2.5a1.48 1.48 0 0 1-.621.135 1.5 1.5 0 0 1-.62-2.866zM6 8a1.5 1.5 0 0 1 .621.134l5.5 2.5A1.5 1.5 0 0 1 11.5 13.5a1.481 1.481 0 0 1-.621-.135l-5.5-2.5A1.5 1.5 0 0 1 6 8zm0 5.5a1.5 1.5 0 0 1 .621.134l5.5 2.5a1.5 1.5 0 1 1-1.241 2.731l-5.5-2.5A1.5 1.5 0 0 1 6 13.5zM6 19a1.5 1.5 0 0 1 .621.134l5.5 2.5A1.5 1.5 0 0 1 11.5 24.5a1.481 1.481 0 0 1-.621-.135l-5.5-2.5A1.5 1.5 0 0 1 6 19z" fill="#95e1d3" fill-rule="evenodd"/></svg>