<svg xmlns="http://www.w3.org/2000/svg" viewBox="0 0 17 16" width="17" height="16">
	<style>
		tspan { white-space:pre }
		.shp0 { fill: #ffffff } 
	</style>
	<path id="Shape 170" class="shp0" d="M16.45,0.72c-0.05,-0.04 -0.12,-0.05 -0.17,-0.02l-15.67,7.94c-0.06,0.03 -0.09,0.09 -0.09,0.16c0.01,0.06 0.05,0.12 0.11,0.14l4.96,1.56c0.05,0.02 0.11,0 0.16,-0.03l7.55,-6.39l-5.8,6.79c-0.03,0.04 -0.05,0.1 -0.03,0.15c0.02,0.05 0.06,0.09 0.11,0.11l5.82,1.76c0.02,0 0.03,0.01 0.05,0.01c0.03,0 0.06,-0.01 0.08,-0.02c0.04,-0.02 0.07,-0.06 0.08,-0.1l2.91,-11.88c0.01,-0.06 -0.01,-0.12 -0.06,-0.16zM9.28,12.86l-1.61,-0.49c-0.05,-0.02 -0.1,-0.01 -0.14,0.02c-0.04,0.03 -0.07,0.08 -0.07,0.13v3.01c0,0.07 0.05,0.13 0.12,0.15c0.01,0 0.03,0.01 0.04,0.01c0.05,0 0.11,-0.03 0.14,-0.07l1.61,-2.52c0.03,-0.04 0.03,-0.09 0.02,-0.14c-0.02,-0.05 -0.06,-0.08 -0.1,-0.1z" />
</svg>