<svg xmlns="http://www.w3.org/2000/svg" viewBox="0 0 17 18" width="17" height="18">
	<style>
		tspan { white-space:pre }
		.shp0 { fill: #ffffff } 
	</style>
	<path id="Shape 128" class="shp0" d="M15.66 5L9.99 5L12.23 2.31C12.26 2.32 12.29 2.33 12.33 2.33C12.7 2.33 13 2.03 13 1.67C13 1.3 12.7 1 12.33 1C11.96 1 11.66 1.3 11.66 1.67C11.66 1.75 11.68 1.82 11.71 1.89L9.12 5L8.88 5L6.29 1.89C6.31 1.82 6.33 1.75 6.33 1.67C6.33 1.3 6.03 1 5.66 1C5.3 1 5 1.3 5 1.67C5 2.03 5.3 2.33 5.66 2.33C5.7 2.33 5.73 2.32 5.77 2.31L8.01 5L2.33 5C1.6 5 1 5.6 1 6.33L1 15.67C1 16.41 1.6 17 2.33 17L15.66 17C16.4 17 17 16.41 17 15.67L17 6.33C17 5.6 16.4 5 15.66 5ZM13 14.34C13 15.07 12.4 15.67 11.66 15.67L3.67 15.67C2.93 15.67 2.33 15.07 2.33 14.34L2.33 7.67C2.33 6.93 2.93 6.33 3.67 6.33L11.66 6.33C12.4 6.33 13 6.93 13 7.67L13 14.34ZM14.96 8.38C14.43 8.38 14.01 7.95 14.01 7.42C14.01 6.9 14.43 6.47 14.96 6.47C15.49 6.47 15.91 6.9 15.91 7.42C15.91 7.95 15.49 8.38 14.96 8.38Z" />
</svg>