<svg aria-hidden="true" style="position:absolute;width:0;height:0" xmlns="http://www.w3.org/2000/svg" overflow="hidden"><defs><symbol id="icon-facebook" viewBox="0 0 32 32"><path d="M23.378.015v5.072s-3.739-.369-4.677 1.06c-.512.783-.208 3.077-.254 4.724h4.959c-.42 1.925-.72 3.23-1.028 4.896h-3.956v15.754h-6.87V15.824H8.629v-4.958h2.891c.148-3.626.204-7.217 2.005-9.046C15.548-.23 17.483.016 23.377.016z"/></symbol><symbol id="icon-instagram" viewBox="0 0 32 32"><path d="M27.956 31.984H3.979a3.996 3.996 0 0 1-3.996-3.996V4.011A3.996 3.996 0 0 1 3.979.015h23.977a3.996 3.996 0 0 1 3.996 3.996v23.977a3.996 3.996 0 0 1-3.996 3.996zM15.968 9.804a6.19 6.19 0 0 0-5.604 3.559l-.016.038c-.01.022-.017.046-.027.069-.059.125-.11.266-.16.401-.024.066-.05.125-.071.195-.046.14-.084.281-.119.425-.017.066-.037.132-.052.2a6.3 6.3 0 0 0-.076.46c-.009.062-.021.125-.029.187a6.134 6.134 0 0 0-.036.662v.001a6.194 6.194 0 1 0 12.388 0 6.579 6.579 0 0 0-.039-.692l.003.029c-.008-.064-.02-.125-.029-.187a6.39 6.39 0 0 0-.076-.46c-.015-.067-.035-.134-.052-.2a5.142 5.142 0 0 0-.119-.425c-.021-.065-.047-.125-.071-.195a6.315 6.315 0 0 0-.16-.401c-.01-.022-.017-.046-.027-.069-1.005-2.141-3.143-3.597-5.621-3.597h-.007zm12.388-4.595c0-.882-.715-1.597-1.597-1.597h-3.198-.001c-.882 0-1.597.715-1.597 1.597v3.198c0 .883.716 1.598 1.598 1.598h3.197c.883 0 1.598-.716 1.598-1.598V5.209zm0 8.192h-2.947c.222.777.35 1.67.35 2.593 0 5.407-4.383 9.79-9.79 9.79s-9.79-4.383-9.79-9.79c0-.923.128-1.816.366-2.662l-.017.069H3.581v13.388c0 .883.716 1.598 1.598 1.598h21.579c.883 0 1.598-.716 1.598-1.598V13.401z"/></symbol><symbol id="icon-pinterest" viewBox="0 0 32 32"><path d="M13.717 20.474c-.257 1.025-.517 2.1-.785 3.151a23.695 23.695 0 0 1-.938 3.206l.054-.166a15.6 15.6 0 0 1-2.536 4.36l.021-.026c-.708.821-.558.492-.77.449-.162-.034-.176-.193-.208-.425a24.166 24.166 0 0 1 .015-4.202l-.007.093c.113-1.57.371-3.027.762-4.428l-.037.156c.596-2.54 1.164-5.03 1.766-7.586.063-.162.104-.349.111-.545v-.003a7.636 7.636 0 0 1-.525-2.056l-.003-.036a6.697 6.697 0 0 1 .181-2.438l-.01.046a3.968 3.968 0 0 1 2.306-2.868l.026-.01a2.674 2.674 0 0 1 2.15.169l-.014-.007a2.33 2.33 0 0 1 1.065 1.519l.003.015a5.53 5.53 0 0 1-.107 2.366l.009-.038c-.329 1.5-.761 2.626-1.153 4.074a4.496 4.496 0 0 0-.229 2.256l-.003-.025a2.61 2.61 0 0 0 1.034 1.564l.008.005a3.012 3.012 0 0 0 2.01.56l-.011.001a4.375 4.375 0 0 0 3.253-1.914l.01-.016a11.295 11.295 0 0 0 2.059-5.73l.002-.038a13.896 13.896 0 0 0 .085-2.515l.002.036a6.723 6.723 0 0 0-1.399-3.852l.012.016a6.517 6.517 0 0 0-3.046-2.093l-.046-.013a10.053 10.053 0 0 0-2.927-.426c-.595 0-1.179.051-1.746.148l.061-.009a8.196 8.196 0 0 0-6.028 4.303l-.021.045a8.606 8.606 0 0 0-1.031 4.111v.09-.005a5.42 5.42 0 0 0 .847 3.099l-.013-.022c.164.246.404.452.564.738a2.11 2.11 0 0 1-.152 1.445l.006-.013c-.135.523-.15 1.246-.761 1.258a1.844 1.844 0 0 1-.792-.303l.006.004a6.31 6.31 0 0 1-2.978-4.564l-.003-.032c-.116-.599-.182-1.288-.182-1.993s.066-1.393.193-2.061l-.011.068a11.386 11.386 0 0 1 5.362-7.533l.053-.029A12.66 12.66 0 0 1 14.022.156l.067-.008c.625-.091 1.273-.129 1.975-.162a11.822 11.822 0 0 1 5.399 1.027l-.075-.03a10.952 10.952 0 0 1 3.66 2.633l.008.009a9.944 9.944 0 0 1 2.24 4.002l.017.07c.287.836.465 1.8.492 2.801v.013a16.79 16.79 0 0 1-.401 3.027l.021-.113a11.5 11.5 0 0 1-4.69 7.925l-.034.023a8.055 8.055 0 0 1-2.101.981l-.058.015a7.707 7.707 0 0 1-2.78.348l.02.001a5.622 5.622 0 0 1-2.469-.725l.028.015a4.08 4.08 0 0 1-1.617-1.518l-.01-.018z"/></symbol><symbol id="icon-twitter" viewBox="0 0 32 32"><path d="M21.439 3.084a6.626 6.626 0 0 1 5.107 2.025l.002.002c1.241-.2 2.354-.591 3.367-1.144l-.055.027.804-.439a6.513 6.513 0 0 1-2.08 3.026l-.012.009a3.105 3.105 0 0 1-.693.494l-.017.008v.016a12.07 12.07 0 0 0 3.735-1.016l-.076.031v.016a10.555 10.555 0 0 1-2.175 2.502l-.017.013-1.009.801a18.607 18.607 0 0 1-.318 4.268l.019-.116c-1.615 7.255-5.893 12.185-12.663 14.292-1.602.478-3.443.753-5.348.753-1.344 0-2.657-.137-3.924-.398l.125.021a23.36 23.36 0 0 1-3.952-1.3l.152.059a14.79 14.79 0 0 1-1.895-.981l.065.037-.567-.345a10.611 10.611 0 0 0 2.095.076l-.03.002c.636-.102 1.259-.075 1.846-.203a13.19 13.19 0 0 0 3.945-1.435l-.067.034a7.274 7.274 0 0 0 1.759-1.153l-.007.006h-.001a5.518 5.518 0 0 1-1.961-.358l.038.013a6.531 6.531 0 0 1-4.088-4.09l-.013-.046a6.422 6.422 0 0 0 2.931-.134l-.045.011a4.715 4.715 0 0 1-2.127-.859l.014.009c-1.837-1.103-3.047-3.084-3.047-5.348 0-.067.001-.133.003-.2v.01l.662.314c.385.155.84.286 1.31.371l.043.007a1.887 1.887 0 0 0 .894.077l-.011.001h-.032c-.325-.378-.862-.63-1.183-1.038A6.622 6.622 0 0 1 1.5 5.903l-.009.045c.18-.641.416-1.2.713-1.719l-.019.037.032.015c.175.254.367.476.581.675l.003.002a11.954 11.954 0 0 0 1.895 1.818l.028.021a18.898 18.898 0 0 0 7.773 3.791l.127.024c.868.23 1.867.367 2.896.378h.007a6.036 6.036 0 0 1 .041-3.076l-.01.042a6.407 6.407 0 0 1 3.618-4.324l.041-.016a7.52 7.52 0 0 1 1.384-.432l.051-.009z"/></symbol></defs></svg>